<?xml version="1.0" standalone="no"?>
<!DOCTYPE svg PUBLIC "-//W3C//DTD SVG 20010904//EN"
 "http://www.w3.org/TR/2001/REC-SVG-20010904/DTD/svg10.dtd">
<svg version="1.0" xmlns="http://www.w3.org/2000/svg"
 width="1000.000000pt" height="1000.000000pt" viewBox="0 0 1000.000000 1000.000000"
 preserveAspectRatio="xMidYMid meet">
<metadata>
Created by potrace 1.11, written by Peter Selinger 2001-2013
</metadata>
<g transform="translate(0.000000,1000.000000) scale(0.100000,-0.100000)"
fill="#000000" stroke="none">
<path d="M0 5000 l0 -5000 5000 0 5000 0 0 5000 0 5000 -5000 0 -5000 0 0
-5000z m4830 3676 c0 -3 -4 -8 -10 -11 -5 -3 -10 -1 -10 4 0 6 5 11 10 11 6 0
10 -2 10 -4z m370 -48 c0 -4 27 -14 59 -24 108 -30 105 -22 111 -340 3 -168 1
-279 -4 -285 -6 -5 -1 -9 15 -10 13 0 19 -3 12 -5 -6 -3 -26 -1 -45 5 -31 9
-31 10 -10 16 25 8 29 20 8 28 -11 4 -12 14 -6 44 5 21 7 47 5 58 -3 11 -7 99
-9 195 -4 174 -13 224 -43 243 -8 5 -11 12 -9 16 3 5 -6 6 -21 3 -16 -3 -24
-1 -20 5 4 6 -2 13 -13 16 -11 3 -18 1 -14 -4 8 -14 -6 -11 -22 5 -19 20 -116
28 -264 23 -127 -5 -175 -12 -197 -30 -7 -5 -13 -6 -13 -3 0 15 -62 -37 -70
-58 -4 -12 -11 -130 -14 -261 -3 -153 -9 -241 -16 -243 -16 -6 -12 -33 8 -49
15 -12 14 -13 -8 -1 -14 7 -29 11 -33 10 -5 -1 -5 3 0 10 4 7 10 131 13 275 5
246 6 263 26 290 21 27 74 49 169 70 48 10 405 11 405 1z m-21 -309 c-1 -171
-5 -254 -13 -265 -18 -23 -64 -9 -72 23 -7 27 5 468 13 489 2 7 14 14 26 16
47 8 48 1 46 -263z m-259 246 c10 -12 11 -69 6 -257 -4 -132 -9 -245 -12 -249
-3 -5 -18 -9 -34 -9 -23 0 -31 5 -36 24 -9 36 -1 479 9 494 11 17 52 15 67 -3z
m-370 -621 c-36 -7 -74 -13 -85 -12 -27 1 93 26 125 26 14 0 -4 -6 -40 -14z
m903 9 c-7 -2 -19 -2 -25 0 -7 3 -2 5 12 5 14 0 19 -2 13 -5z m50 -10 c-7 -2
-19 -2 -25 0 -7 3 -2 5 12 5 14 0 19 -2 13 -5z m50 -10 c-7 -2 -19 -2 -25 0
-7 3 -2 5 12 5 14 0 19 -2 13 -5z m-1116 -9 c-3 -3 -12 -4 -19 -1 -8 3 -5 6 6
6 11 1 17 -2 13 -5z m1160 0 c-3 -3 -12 -4 -19 -1 -8 3 -5 6 6 6 11 1 17 -2
13 -5z m-1217 -14 c-14 -4 -34 -8 -45 -8 -16 0 -15 2 5 8 14 4 34 8 45 8 16 0
15 -2 -5 -8z m1267 4 c-3 -3 -12 -4 -19 -1 -8 3 -5 6 6 6 11 1 17 -2 13 -5z
m115 -25 c44 -12 77 -23 75 -25 -2 -3 -44 7 -93 20 -49 14 -83 25 -75 25 8 1
50 -9 93 -20z m-1455 5 c-3 -3 -12 -4 -19 -1 -8 3 -5 6 6 6 11 1 17 -2 13 -5z
m-52 -14 c-11 -5 -27 -9 -35 -9 -9 0 -8 4 5 9 11 5 27 9 35 9 9 0 8 -4 -5 -9z
m3458 3 c-13 -2 -33 -2 -45 0 -13 2 -3 4 22 4 25 0 35 -2 23 -4z m-130 -10
c-13 -2 -33 -2 -45 0 -13 2 -3 4 22 4 25 0 35 -2 23 -4z m340 0 c-13 -2 -35
-2 -50 0 -16 2 -5 4 22 4 28 0 40 -2 28 -4z m-3738 -13 c-11 -5 -27 -9 -35 -9
-9 0 -8 4 5 9 11 5 27 9 35 9 9 0 8 -4 -5 -9z m3288 3 c-7 -2 -19 -2 -25 0 -7
3 -2 5 12 5 14 0 19 -2 13 -5z m545 0 c-10 -2 -26 -2 -35 0 -10 3 -2 5 17 5
19 0 27 -2 18 -5z m-605 -10 c-7 -2 -19 -2 -25 0 -7 3 -2 5 12 5 14 0 19 -2
13 -5z m660 0 c-7 -2 -19 -2 -25 0 -7 3 -2 5 12 5 14 0 19 -2 13 -5z m-5685
-10 c-49 -2 -127 -2 -175 0 -49 1 -9 3 87 3 96 0 136 -2 88 -3z m3519 1 c-3
-3 -12 -4 -19 -1 -8 3 -5 6 6 6 11 1 17 -2 13 -5z m1460 0 c-3 -3 -12 -4 -19
-1 -8 3 -5 6 6 6 11 1 17 -2 13 -5z m760 0 c-3 -3 -12 -4 -19 -1 -8 3 -5 6 6
6 11 1 17 -2 13 -5z m-6044 -11 c-7 -2 -21 -2 -30 0 -10 3 -4 5 12 5 17 0 24
-2 18 -5z m475 0 c-10 -2 -26 -2 -35 0 -10 3 -2 5 17 5 19 0 27 -2 18 -5z
m4759 1 c-3 -3 -12 -4 -19 -1 -8 3 -5 6 6 6 11 1 17 -2 13 -5z m860 0 c-3 -3
-12 -4 -19 -1 -8 3 -5 6 6 6 11 1 17 -2 13 -5z m-6164 -11 c-7 -2 -19 -2 -25
0 -7 3 -2 5 12 5 14 0 19 -2 13 -5z m600 0 c-7 -2 -19 -2 -25 0 -7 3 -2 5 12
5 14 0 19 -2 13 -5z m4664 1 c-3 -3 -12 -4 -19 -1 -8 3 -5 6 6 6 11 1 17 -2
13 -5z m-5324 -11 c-7 -2 -19 -2 -25 0 -7 3 -2 5 12 5 14 0 19 -2 13 -5z m724
1 c-3 -3 -12 -4 -19 -1 -8 3 -5 6 6 6 11 1 17 -2 13 -5z m1343 -8 c-14 -7 -36
-16 -50 -20 -14 -3 -7 3 15 13 45 22 73 27 35 7z m3217 8 c-3 -3 -12 -4 -19
-1 -8 3 -5 6 6 6 11 1 17 -2 13 -5z m-5340 -10 c-3 -3 -12 -4 -19 -1 -8 3 -5
6 6 6 11 1 17 -2 13 -5z m898 -14 c25 -11 -1 -11 -35 0 -20 6 -21 8 -5 8 11 0
29 -3 40 -8z m3275 0 c8 -5 11 -10 5 -10 -5 0 -17 5 -25 10 -8 5 -10 10 -5 10
6 0 17 -5 25 -10z m1085 0 c-11 -5 -27 -9 -35 -9 -9 0 -8 4 5 9 11 5 27 9 35
9 9 0 8 -4 -5 -9z m-4290 -20 c13 -5 14 -9 5 -9 -8 0 -24 4 -35 9 -13 5 -14 9
-5 9 8 0 24 -4 35 -9z m1074 6 c-2 -2 -15 -9 -29 -16 -23 -12 -24 -12 -11 3 7
10 20 17 29 17 8 0 13 -2 11 -4z m2206 -28 c20 -17 51 -54 69 -82 45 -72 48
-76 43 -76 -3 0 -20 24 -38 53 -42 67 -67 95 -104 118 -16 11 -25 19 -18 19 7
0 29 -14 48 -32z m940 22 c-27 -12 -43 -12 -25 0 8 5 22 9 30 9 10 0 8 -3 -5
-9z m1325 -10 c8 -5 11 -10 5 -10 -5 0 -17 5 -25 10 -8 5 -10 10 -5 10 6 0 17
-5 25 -10z m-5430 -32 c10 -6 7 -7 -10 -2 -14 3 -32 11 -40 16 -10 6 -7 7 10
2 14 -3 32 -11 40 -16z m900 19 c0 -2 -18 -21 -40 -42 -22 -21 -40 -36 -40
-32 0 5 17 24 38 42 36 34 42 38 42 32z m3120 -7 c-8 -5 -19 -10 -25 -10 -5 0
-3 5 5 10 8 5 20 10 25 10 6 0 3 -5 -5 -10z m1470 -4 c-4 -4 -16 -4 -26 2 -16
9 -14 10 8 9 15 -1 23 -6 18 -11z m-6820 -5 c-8 -5 -26 -11 -40 -15 -21 -5
-20 -3 5 9 32 15 60 20 35 6z m5309 -5 c-2 -2 -15 -9 -29 -15 -24 -11 -24 -11
-6 3 16 13 49 24 35 12z m1546 -6 c3 -6 -1 -7 -9 -4 -18 7 -21 14 -7 14 6 0
13 -4 16 -10z m-5475 -10 c8 -5 11 -10 5 -10 -5 0 -17 5 -25 10 -8 5 -10 10
-5 10 6 0 17 -5 25 -10z m5566 -32 c19 -11 34 -22 34 -24 0 -5 -101 45 -110
53 -11 11 44 -10 76 -29z m-7046 12 c-8 -5 -19 -10 -25 -10 -5 0 -3 5 5 10 8
5 20 10 25 10 6 0 3 -5 -5 -10z m1540 -5 c14 -8 21 -14 15 -14 -5 0 -21 6 -35
14 -14 8 -20 14 -15 14 6 0 21 -6 35 -14z m55 -33 c-3 -3 -11 0 -18 7 -9 10
-8 11 6 5 10 -3 15 -9 12 -12z m3695 13 c0 -2 -10 -9 -22 -15 -22 -11 -22 -10
-4 4 21 17 26 19 26 11z m-3049 -22 c-5 -10 -17 -27 -26 -38 -16 -19 -17 -19
-3 5 26 46 29 50 34 50 3 0 0 -8 -5 -17z m2999 -3 c0 -5 -2 -10 -4 -10 -3 0
-8 5 -11 10 -3 6 -1 10 4 10 6 0 11 -4 11 -10z m1960 -57 c8 -8 -13 2 -47 22
-35 21 -63 39 -63 42 0 7 92 -47 110 -64z m-5490 11 c0 -2 -13 2 -30 11 -16 9
-30 18 -30 21 0 2 14 -2 30 -11 17 -9 30 -18 30 -21z m-1875 18 c-18 -15 -85
-54 -85 -48 0 3 19 16 43 30 43 26 59 33 42 18z m5350 -8 c-28 -21 -55 -36
-55 -29 0 6 62 45 70 45 3 -1 -4 -8 -15 -16z m-3365 -76 l25 -20 -29 17 c-16
10 -44 26 -63 37 -18 11 -33 22 -33 25 0 7 71 -35 100 -59z m363 21 c-10 -17
-26 -38 -37 -47 -10 -9 -4 4 15 31 37 53 49 62 22 16z m2562 19 c5 4 5 1 1 -5
-7 -13 19 -46 44 -56 13 -5 13 -6 -1 -6 -15 -1 -38 20 -69 64 -14 18 -13 19 1
8 9 -7 20 -9 24 -5z m-5005 -12 c0 -2 -12 -11 -27 -20 l-28 -17 24 20 c23 21
31 25 31 17z m5301 -46 c-20 -18 -37 -20 -130 -18 l-106 2 104 3 c70 3 110 8
125 18 30 22 35 18 7 -5z m2260 3 c13 -16 12 -17 -3 -4 -10 7 -18 15 -18 17 0
8 8 3 21 -13z m-5401 -31 c-13 -2 -29 3 -37 11 -13 13 -10 13 22 3 30 -9 32
-12 15 -14z m-2269 -5 c-10 -9 -11 -8 -5 6 3 10 9 15 12 12 3 -3 0 -11 -7 -18z
m7716 14 c-1 -4 25 -31 58 -61 33 -29 64 -61 69 -69 5 -9 -22 13 -60 48 -38
36 -75 70 -82 76 -11 9 -10 12 2 12 8 0 14 -3 13 -6z m-5230 -7 c-3 -3 -12 -4
-19 -1 -8 3 -5 6 6 6 11 1 17 -2 13 -5z m-2507 -18 c0 -2 -8 -10 -17 -17 -16
-13 -17 -12 -4 4 13 16 21 21 21 13z m-40 -29 c0 -2 -10 -12 -22 -23 l-23 -19
19 23 c18 21 26 27 26 19z m-60 -50 c0 -1 -46 -47 -102 -102 -56 -55 -100 -97
-98 -93 7 10 194 198 197 198 2 0 3 -1 3 -3z m8070 -132 c22 -26 13 -20 -28
20 -34 33 -62 64 -62 69 0 11 39 -27 90 -89z m64 -41 c3 -8 2 -12 -4 -9 -6 3
-10 2 -10 -4 0 -5 4 -12 10 -16 11 -7 53 -65 47 -65 -13 0 -66 81 -61 94 8 20
10 20 18 0z m-8334 -37 c0 -2 -8 -11 -18 -20 -15 -14 -19 -15 -19 -2 0 8 4 12
8 9 4 -2 10 0 14 6 6 10 15 14 15 7z m-40 -51 c0 -2 -8 -10 -17 -17 -16 -13
-17 -12 -4 4 13 16 21 21 21 13z m8498 -116 c36 -64 19 -46 -32 33 -26 39 -35
57 -19 39 15 -18 38 -51 51 -72z m-8528 76 c0 -2 -6 -9 -14 -15 -11 -9 -16 -9
-22 0 -4 7 -3 9 4 5 6 -3 13 -2 17 4 6 10 15 14 15 6z m-30 -40 c0 -2 -8 -10
-17 -17 -16 -13 -17 -12 -4 4 13 16 21 21 21 13z m8615 -108 c5 4 5 1 1 -5 -4
-7 -2 -22 4 -33 6 -11 8 -20 6 -20 -3 0 -15 19 -26 43 -12 23 -15 34 -7 25 8
-10 18 -14 22 -10z m-4385 -33 c0 -8 -7 -15 -15 -15 -8 0 -15 7 -15 15 0 8 7
15 15 15 8 0 15 -7 15 -15z m80 5 c0 -5 -7 -10 -15 -10 -8 0 -15 5 -15 10 0 6
7 10 15 10 8 0 15 -4 15 -10z m-4420 -40 c-23 -46 -26 -48 -26 -21 0 11 3 18
7 16 3 -3 11 7 17 20 7 14 14 25 17 25 3 0 -4 -18 -15 -40z m8754 -16 c3 -8 2
-12 -4 -9 -6 3 -10 10 -10 16 0 14 7 11 14 -7z m-8803 -77 c-10 -9 -11 -8 -5
6 3 10 9 15 12 12 3 -3 0 -11 -7 -18z m8849 -22 c0 -5 -5 -3 -10 5 -5 8 -10
20 -10 25 0 6 5 3 10 -5 5 -8 10 -19 10 -25z m-8869 -22 c-12 -20 -14 -14 -5
12 4 9 9 14 11 11 3 -2 0 -13 -6 -23z m8913 -93 c5 -20 3 -19 -8 5 -7 17 -16
41 -20 55 -5 20 -3 19 8 -5 7 -16 16 -41 20 -55z m-8943 23 c-12 -20 -14 -14
-5 12 4 9 9 14 11 11 3 -2 0 -13 -6 -23z m8988 -163 c0 -9 -4 -8 -9 5 -5 11
-9 27 -9 35 0 9 4 8 9 -5 5 -11 9 -27 9 -35z m-9045 -4 c-3 -15 -8 -25 -11
-23 -2 3 -1 17 3 31 3 15 8 25 11 23 2 -3 1 -17 -3 -31z m9064 -71 c0 -16 -2
-15 -8 5 -11 34 -11 60 0 35 5 -11 8 -29 8 -40z m-9084 1 c-3 -15 -8 -25 -11
-23 -2 3 -1 17 3 31 3 15 8 25 11 23 2 -3 1 -17 -3 -31z m1771 -26 c17 -7 16
-9 -10 -9 -54 -2 -104 -21 -140 -55 -39 -37 -41 -37 -20 3 25 48 120 82 170
61z m7333 -65 c0 -16 -2 -15 -8 5 -4 14 -8 34 -8 45 0 16 2 15 8 -5 4 -14 8
-34 8 -45z m-9121 23 c-3 -8 -6 -5 -6 6 -1 11 2 17 5 13 3 -3 4 -12 1 -19z
m-10 -50 c-3 -7 -5 -2 -5 12 0 14 2 19 5 13 2 -7 2 -19 0 -25z m9140 -45 c-3
-10 -5 -4 -5 12 0 17 2 24 5 18 2 -7 2 -21 0 -30z m-1537 11 c45 -27 80 -91
79 -144 0 -50 -7 -40 -29 40 -8 27 -27 59 -50 82 -42 42 -42 46 0 22z m-7613
-31 c-3 -10 -5 -4 -5 12 0 17 2 24 5 18 2 -7 2 -21 0 -30z m7328 -19 c-71
-105 -53 -216 47 -291 36 -26 16 -32 -22 -6 -62 42 -90 97 -90 173 0 54 8 75
48 128 33 44 47 41 17 -4z m-2378 -13 c24 -18 47 -61 57 -108 7 -29 5 -34 -19
-43 -41 -16 -50 -12 -68 25 -25 52 -75 45 -106 -14 -16 -28 -16 -152 0 -198
20 -61 87 -54 109 12 13 40 35 45 71 16 22 -18 23 -20 9 -62 -54 -162 -226
-153 -279 13 -24 73 -11 231 23 297 43 81 137 110 203 62z m-273 -26 c-2 -41
-9 -85 -53 -320 -25 -130 -28 -140 -50 -143 -36 -5 -40 7 -26 83 7 39 20 115
29 170 15 88 27 157 42 233 4 19 10 23 32 20 25 -3 27 -7 26 -43z m4483 -7
c-2 -13 -4 -5 -4 17 -1 22 1 32 4 23 2 -10 2 -28 0 -40z m-4708 26 c68 -48 68
-218 0 -254 -18 -10 -19 -14 -7 -28 17 -20 64 -125 73 -164 7 -27 6 -28 -37
-28 l-44 0 -49 95 c-34 68 -53 95 -67 95 -16 0 -18 -8 -18 -64 0 -35 -3 -78
-6 -95 -6 -27 -10 -31 -40 -31 -33 0 -34 1 -35 43 -3 98 3 432 7 439 3 5 49 8
102 8 74 0 103 -4 121 -16z m-4462 -31 c-3 -10 -5 -4 -5 12 0 17 2 24 5 18 2
-7 2 -21 0 -30z m-10 -320 c-1 -54 -3 -10 -3 97 0 107 2 151 3 98 2 -54 2
-142 0 -195z m9190 45 c-1 -46 -3 -9 -3 82 0 91 2 128 3 83 2 -46 2 -120 0
-165z m-7197 172 c-46 -91 -175 -119 -277 -60 -29 17 -53 35 -53 40 0 13 17
13 26 -1 12 -20 89 -49 132 -49 58 0 104 21 149 69 21 22 39 40 41 41 1 0 -7
-18 -18 -40z m7187 -317 c-3 -10 -5 -4 -5 12 0 17 2 24 5 18 2 -7 2 -21 0 -30z
m-9170 -50 c-3 -10 -5 -4 -5 12 0 17 2 24 5 18 2 -7 2 -21 0 -30z m9160 -30
c-3 -10 -5 -2 -5 17 0 19 2 27 5 18 2 -10 2 -26 0 -35z m-9150 -45 c-3 -7 -5
-2 -5 12 0 14 2 19 5 13 2 -7 2 -19 0 -25z m9140 -10 c-3 -7 -5 -2 -5 12 0 14
2 19 5 13 2 -7 2 -19 0 -25z m-9130 -40 c-3 -7 -5 -2 -5 12 0 14 2 19 5 13 2
-7 2 -19 0 -25z m9120 -10 c-3 -7 -5 -2 -5 12 0 14 2 19 5 13 2 -7 2 -19 0
-25z m-9110 -40 c-3 -8 -6 -5 -6 6 -1 11 2 17 5 13 3 -3 4 -12 1 -19z m9090
-30 c-3 -8 -6 -5 -6 6 -1 11 2 17 5 13 3 -3 4 -12 1 -19z m-9070 -40 c-3 -8
-6 -5 -6 6 -1 11 2 17 5 13 3 -3 4 -12 1 -19z m9043 -45 c-11 -17 -11 -17 -6
0 3 10 6 24 7 30 0 9 2 9 5 0 3 -7 0 -20 -6 -30z m-29 -80 c-12 -20 -14 -14
-5 12 4 9 9 14 11 11 3 -2 0 -13 -6 -23z m-8961 -18 c0 -5 -5 -3 -10 5 -5 8
-10 20 -10 25 0 6 5 3 10 -5 5 -8 10 -19 10 -25z m8941 -32 c-12 -20 -14 -14
-5 12 4 9 9 14 11 11 3 -2 0 -13 -6 -23z m-8921 -18 c0 -5 -5 -3 -10 5 -5 8
-10 20 -10 25 0 6 5 3 10 -5 5 -8 10 -19 10 -25z m8890 -54 c-28 -56 -35 -52
-8 4 12 24 23 43 26 41 2 -2 -6 -22 -18 -45z m-8802 -137 c-5 -4 -88 161 -87
173 0 4 20 -32 45 -81 25 -48 44 -90 42 -92z m8753 39 c-11 -21 -20 -35 -21
-31 0 12 33 78 38 74 2 -2 -6 -21 -17 -43z m58 -410 c40 -203 79 -395 86 -428
8 -33 35 -168 60 -300 25 -132 50 -262 55 -290 31 -154 77 -402 121 -640 28
-148 60 -319 71 -380 26 -131 30 -333 9 -410 -47 -174 -95 -294 -147 -368 -19
-26 -34 -49 -34 -52 0 -19 -133 -152 -202 -202 -62 -46 -167 -107 -173 -101
-3 2 24 20 58 40 132 76 247 180 323 293 45 66 105 195 98 208 -4 7 -3 8 1 4
11 -9 37 72 28 86 -3 6 -1 7 4 4 28 -17 49 275 31 408 -3 17 -11 74 -18 128
-9 64 -17 93 -23 85 -6 -10 -8 -9 -4 3 3 9 -3 56 -13 105 -10 49 -20 105 -23
124 -7 49 -36 215 -48 275 -6 28 -12 64 -14 80 -2 17 -9 53 -15 80 -6 28 -12
66 -15 85 -3 19 -9 55 -14 80 -6 25 -19 97 -31 160 -35 192 -249 1255 -256
1273 -3 9 -2 17 3 17 5 0 42 -165 82 -367z m-8774 291 c11 -27 12 -34 2 -22
-11 14 -17 -2 -42 -115 -16 -71 -30 -126 -32 -120 -2 5 10 69 26 142 16 73 27
140 24 149 -12 34 7 5 22 -34z m-90 -361 c-9 -43 -21 -103 -25 -133 -5 -30
-13 -75 -19 -100 -25 -114 -42 -186 -46 -195 -8 -17 6 77 25 165 10 47 25 119
34 160 33 164 39 190 43 186 3 -3 -3 -40 -12 -83z m3949 -253 c37 -14 59 -64
53 -118 -6 -56 -22 -71 -77 -75 l-45 -2 -7 45 c-3 25 -7 68 -7 97 -1 41 3 52
17 56 29 8 40 7 66 -3z m261 -7 c49 -48 45 -149 -6 -181 -23 -14 -94 2 -98 22
-1 6 -4 37 -7 68 -5 52 -3 60 20 83 29 29 67 32 91 8z m219 -16 c15 -21 17
-30 8 -39 -9 -9 -17 -9 -36 1 -32 17 -46 7 -46 -33 0 -46 18 -61 41 -33 16 20
19 21 34 6 22 -21 6 -55 -32 -70 -71 -27 -122 89 -73 169 17 28 25 33 52 29
20 -2 39 -13 52 -30z m168 1 c36 -46 14 -158 -33 -173 -29 -10 -74 12 -88 41
-19 41 -14 108 11 139 18 23 26 26 57 21 20 -3 43 -15 53 -28z m169 15 c2 -33
2 -78 0 -130 -1 -46 -4 -53 -21 -53 -12 0 -27 13 -39 38 l-20 37 -1 -37 c0
-31 -4 -38 -19 -38 -24 0 -28 15 -27 110 1 70 3 75 24 78 18 3 26 -5 41 -40
l20 -43 0 41 c1 22 4 44 8 47 13 13 33 7 34 -10z m122 8 c22 -1 27 -6 27 -26
0 -18 -5 -25 -20 -25 -18 0 -20 -7 -20 -70 0 -63 -2 -70 -20 -70 -18 0 -20 7
-20 66 0 57 -3 67 -19 71 -44 11 -26 62 21 57 12 -1 35 -3 51 -3z m1157 6 c0
-2 -12 -14 -27 -28 l-26 -24 19 27 c16 23 34 36 34 25z m-2376 -29 c18 -26 21
-69 5 -85 -8 -8 -6 -19 5 -41 21 -40 20 -52 -3 -52 -11 0 -29 16 -42 38 l-24
37 -3 -37 c-2 -29 -8 -38 -22 -38 -16 0 -19 12 -25 85 -4 46 -5 91 -1 100 4
10 19 15 50 15 35 0 48 -5 60 -22z m155 -68 c17 -50 29 -95 26 -100 -10 -17
-33 -11 -40 10 -4 12 -15 20 -30 20 -14 0 -25 -7 -28 -20 -5 -20 -31 -27 -41
-11 -6 9 27 161 39 181 3 5 14 10 24 10 14 0 26 -21 50 -90z m246 -5 c0 -83
-1 -90 -20 -90 -18 0 -20 8 -23 93 -3 92 -2 93 20 90 22 -3 23 -7 23 -93z
m983 78 c19 -36 22 -72 9 -85 -12 -10 -11 -18 1 -50 8 -21 13 -40 11 -43 -12
-11 -46 9 -62 38 -14 24 -20 28 -27 17 -5 -8 -6 -18 -3 -22 8 -14 -17 -37 -33
-31 -11 4 -14 26 -14 92 0 48 3 91 7 94 3 4 28 7 54 7 36 0 51 -5 57 -17z
m158 -6 c22 -19 28 -33 29 -72 2 -42 -2 -53 -26 -77 -42 -42 -85 -34 -114 23
-29 55 9 149 60 149 13 0 36 -11 51 -23z m-2387 9 c-2 -2 -15 -9 -29 -15 -24
-11 -24 -11 -6 3 16 13 49 24 35 12z m2489 -68 l3 -67 32 -3 c44 -4 49 -34 8
-43 -17 -4 -44 -4 -61 0 -29 6 -30 8 -30 65 0 83 9 122 29 118 12 -3 17 -18
19 -70z m-2416 -2 c7 -13 7 -16 -1 -12 -6 4 -18 22 -27 39 -14 30 -14 31 1 12
9 -11 21 -28 27 -39z m3098 24 c0 -5 -5 -10 -11 -10 -5 0 -7 5 -4 10 3 6 8 10
11 10 2 0 4 -4 4 -10z m-3270 -5 c0 -2 -13 -11 -30 -20 -38 -19 -40 -11 -2 9
31 17 32 18 32 11z m3515 -30 l20 -16 -20 10 c-11 5 -29 17 -40 26 l-20 16 20
-10 c11 -5 29 -17 40 -26z m-3625 -30 c0 -3 -28 -19 -62 -36 -71 -35 -71 -28
0 12 48 27 62 33 62 24z m330 -35 c6 -11 9 -20 8 -20 -2 0 -11 9 -21 20 -9 11
-13 20 -7 20 5 0 14 -9 20 -20z m2976 -8 c-18 -16 -18 -16 -6 6 6 13 14 21 18
18 3 -4 -2 -14 -12 -24z m449 -12 c3 -5 1 -10 -4 -10 -6 0 -11 5 -11 10 0 6 2
10 4 10 3 0 8 -4 11 -10z m-6479 -102 c-8 -40 -25 -129 -39 -198 -43 -211
-116 -590 -132 -683 -8 -48 -23 -122 -34 -165 -10 -42 -19 -84 -19 -92 0 -8
-21 -114 -46 -235 -25 -121 -49 -256 -54 -301 -17 -145 10 -319 67 -449 12
-26 19 -50 17 -53 -9 -8 -47 89 -70 180 -48 182 -45 270 19 593 18 94 37 193
43 220 5 28 41 208 80 400 71 352 171 859 173 872 0 5 3 3 5 -4 3 -6 -2 -44
-10 -85z m2589 82 c-3 -5 -11 -10 -16 -10 -6 0 -7 5 -4 10 3 6 11 10 16 10 6
0 7 -4 4 -10z m3945 -16 c0 -2 -9 0 -20 6 -11 6 -20 13 -20 16 0 2 9 0 20 -6
11 -6 20 -13 20 -16z m-3995 -14 c-10 -11 -21 -17 -24 -14 -3 3 3 12 13 20 28
20 32 17 11 -6z m4025 -11 c0 -6 -4 -7 -10 -4 -5 3 -10 11 -10 16 0 6 5 7 10
4 6 -3 10 -11 10 -16z m-3440 -29 c6 -11 8 -20 6 -20 -3 0 -10 9 -16 20 -6 11
-8 20 -6 20 3 0 10 -9 16 -20z m-629 -37 c-11 -21 -20 -35 -21 -31 0 12 33 78
38 74 2 -2 -6 -21 -17 -43z m3450 0 c-5 -10 -17 -27 -26 -38 -16 -19 -17 -19
-3 5 26 46 29 50 34 50 3 0 0 -8 -5 -17z m678 -68 c0 -5 -8 6 -19 25 -11 19
-19 40 -19 45 0 6 8 -6 19 -25 11 -19 19 -39 19 -45z m-4159 -10 c-6 -15 -13
-25 -16 -23 -2 3 1 17 7 32 16 34 23 27 9 -9z m730 5 c6 -11 8 -20 6 -20 -3 0
-10 9 -16 20 -6 11 -8 20 -6 20 3 0 10 -9 16 -20z m2704 -2 c-23 -37 -81 -115
-94 -125 -20 -16 -27 -16 -34 3 -3 8 -2 13 3 9 18 -11 43 9 82 66 22 33 42 59
45 59 3 0 2 -6 -2 -12z m-2669 -54 c9 -15 12 -23 6 -20 -11 7 -35 46 -28 46 3
0 12 -12 22 -26z m-799 -21 c-8 -15 -15 -25 -16 -21 0 12 23 58 27 54 3 -2 -2
-17 -11 -33z m864 -70 c11 -13 16 -23 11 -23 -6 0 -13 5 -16 10 -4 6 -11 7
-17 4 -7 -4 -8 -2 -4 4 4 6 -1 24 -10 39 -15 26 -15 27 0 8 9 -11 26 -30 36
-42z m-876 21 c3 -8 2 -12 -4 -9 -6 3 -10 1 -10 -6 0 -7 -2 -10 -5 -7 -5 5 4
38 10 38 2 0 6 -7 9 -16z m3117 7 c-12 -8 -51 -4 -51 5 0 2 15 4 33 4 22 0 28
-3 18 -9z m1159 -26 c0 -5 -5 -3 -10 5 -5 8 -10 20 -10 25 0 6 5 3 10 -5 5 -8
10 -19 10 -25z m-2530 15 c12 -8 10 -10 -9 -10 -13 0 -22 -3 -18 -6 10 -10
127 -13 127 -3 0 5 -9 9 -20 9 -11 0 -20 4 -20 9 0 4 111 9 246 10 220 2 248
0 258 -15 12 -16 14 -15 39 1 23 15 27 15 27 2 0 -11 13 -14 58 -13 40 1 56 5
55 14 -2 8 11 12 40 12 31 0 38 -3 27 -10 -12 -8 -11 -10 7 -10 12 0 25 5 28
10 4 6 11 8 16 4 5 -3 7 -8 5 -12 -2 -4 163 -6 366 -6 204 1 364 -2 357 -6 -8
-4 -534 -10 -1169 -12 -635 -2 -1053 -3 -928 -1 196 3 226 5 222 18 -5 11 1
15 22 14 17 -1 22 -3 12 -6 -33 -8 -18 -23 23 -23 39 0 48 18 11 22 -9 1 28 5
83 8 55 3 105 7 110 8 6 1 17 -3 25 -8z m693 3 c-7 -2 -19 -2 -25 0 -7 3 -2 5
12 5 14 0 19 -2 13 -5z m375 0 c-15 -2 -42 -2 -60 0 -18 2 -6 4 27 4 33 0 48
-2 33 -4z m490 0 c-10 -2 -28 -2 -40 0 -13 2 -5 4 17 4 22 1 32 -1 23 -4z
m-1890 -10 c-16 -2 -40 -2 -55 0 -16 2 -3 4 27 4 30 0 43 -2 28 -4z m-1508
-177 c-39 -80 -68 -152 -64 -158 4 -6 3 -8 -3 -5 -10 6 -86 -140 -79 -152 3
-4 -1 -8 -8 -8 -8 0 28 85 92 216 57 119 108 227 113 240 5 13 12 22 14 19 3
-3 -27 -71 -65 -152z m4395 127 c0 -21 -1 -22 -12 -6 -7 9 -13 20 -13 23 0 4
6 7 13 7 6 0 12 -11 12 -24z m45 -49 c0 -8 -5 -12 -11 -8 -8 4 -9 -1 -5 -17 6
-19 5 -21 -4 -7 -11 17 -4 48 11 48 5 0 9 -7 9 -16z m36 -81 c10 -21 26 -50
36 -66 11 -15 18 -35 15 -45 -3 -15 -36 45 -68 126 -14 36 -1 25 17 -15z m4
-68 c0 -5 -5 -3 -10 5 -5 8 -10 20 -10 25 0 6 5 3 10 -5 5 -8 10 -19 10 -25z
m29 -65 c11 -24 11 -24 -3 -6 -9 11 -16 24 -16 30 0 12 5 7 19 -24z m46 -31
c9 -17 15 -33 13 -35 -3 -2 -12 12 -21 31 -21 43 -13 47 8 4z m40 -59 c3 -5 1
-10 -4 -10 -6 0 -11 5 -11 10 0 6 2 10 4 10 3 0 8 -4 11 -10z m35 -67 c12 -27
34 -75 50 -108 96 -201 139 -295 150 -330 7 -22 24 -56 36 -75 13 -19 24 -39
24 -43 0 -10 16 -48 70 -162 21 -44 63 -141 95 -215 32 -74 69 -160 82 -190
14 -30 33 -75 43 -100 16 -39 46 -107 108 -242 9 -21 20 -38 25 -38 4 0 7 -7
7 -15 0 -8 3 -15 8 -15 4 0 13 -13 20 -30 21 -47 211 -220 299 -272 44 -26
127 -63 184 -83 57 -19 96 -35 86 -35 -31 0 -188 59 -261 98 -124 67 -336 246
-336 284 0 5 -6 6 -12 2 -7 -4 -10 -4 -6 1 4 4 -1 20 -11 34 -10 14 -32 58
-49 96 -17 39 -65 141 -106 228 -42 87 -74 162 -71 167 7 11 -5 41 -15 35 -10
-6 -44 71 -37 82 3 5 -3 17 -14 27 -12 10 -18 24 -15 32 4 10 2 12 -6 8 -8 -5
-9 -2 -5 10 5 11 3 15 -5 10 -8 -5 -9 -2 -4 11 6 16 4 16 -11 4 -9 -8 -14 -9
-10 -3 4 7 0 28 -8 48 -9 20 -13 42 -9 48 5 7 2 8 -6 3 -10 -6 -12 -4 -7 9 4
9 3 15 -2 12 -11 -7 -23 22 -14 36 4 7 1 8 -7 3 -10 -6 -12 -4 -7 8 8 20 -2
49 -13 42 -13 -8 -50 83 -43 102 5 12 3 14 -7 8 -9 -6 -11 -4 -5 4 9 15 -24
93 -36 85 -5 -3 -6 3 -2 12 5 13 3 15 -7 9 -9 -5 -11 -4 -6 4 8 12 -31 109
-121 300 -29 62 -53 120 -53 127 0 29 20 12 40 -33z m-21 -58 c0 -5 -6 1 -14
15 -8 14 -14 30 -14 35 0 6 6 -1 14 -15 8 -14 14 -29 14 -35z m-4808 -55 c-17
-34 -28 -67 -24 -73 3 -5 2 -7 -4 -4 -5 3 -23 -21 -38 -53 -16 -33 -30 -58
-32 -56 -2 2 24 60 59 129 34 70 64 124 66 122 2 -2 -10 -31 -27 -65z m4847
-25 c6 -14 10 -25 8 -25 -2 0 -11 11 -20 25 -9 14 -13 25 -8 25 5 0 14 -11 20
-25z m91 -200 c0 -5 -8 6 -19 25 -11 19 -19 40 -19 45 0 6 8 -6 19 -25 11 -19
19 -39 19 -45z m-5046 10 c-3 -9 -8 -14 -10 -11 -3 3 -2 9 2 15 9 16 15 13 8
-4z m-20 -40 c-3 -9 -8 -14 -10 -11 -3 3 -2 9 2 15 9 16 15 13 8 -4z m-22 -48
c-10 -9 -11 -8 -5 6 3 10 9 15 12 12 3 -3 0 -11 -7 -18z m-70 -143 c-33 -66
-60 -116 -60 -112 -1 11 113 238 117 234 2 -2 -24 -57 -57 -122z m5229 73 c0
-7 -4 -6 -10 3 -8 12 -10 12 -10 1 0 -8 -3 -12 -6 -8 -9 9 6 28 17 22 5 -4 9
-12 9 -18z m-5341 -311 c-17 -37 -33 -65 -36 -63 -2 3 11 34 29 71 17 36 33
64 35 62 2 -2 -11 -33 -28 -70z m-75 -159 c-27 -60 -44 -80 -20 -24 26 61 39
87 43 84 2 -2 -8 -29 -23 -60z m-100 -216 c-37 -78 -69 -140 -71 -138 -1 2 27
67 64 145 37 78 68 140 70 138 2 -2 -26 -67 -63 -145z m-105 -225 c-11 -26
-23 -46 -25 -43 -3 3 5 25 17 51 29 59 35 53 8 -8z m7380 -68 c-6 -12 -19 -29
-28 -39 -22 -23 -101 -71 -101 -62 -1 10 122 122 133 123 4 0 2 -10 -4 -22z
m-7451 -84 c-34 -70 -60 -105 -123 -170 -44 -45 -108 -101 -142 -126 -34 -25
-59 -50 -55 -54 4 -5 3 -6 -2 -2 -5 4 -18 3 -30 -3 -15 -7 -14 -5 4 8 76 55
220 176 242 205 14 18 34 43 44 54 11 12 37 58 58 103 22 44 41 79 43 77 2 -2
-16 -43 -39 -92z m-1622 -22 c44 -77 188 -225 270 -278 110 -71 102 -64 79
-57 -41 13 -143 89 -221 165 -44 43 -84 75 -89 71 -4 -5 -5 -2 -1 4 4 7 -3 27
-17 45 -30 41 -77 124 -77 135 0 10 13 -8 56 -85z m8614 -53 c25 -14 -40 -9
-85 6 l-40 14 55 -6 c30 -3 62 -9 70 -14z m370 -245 c0 -6 -65 -34 -77 -34 -9
1 58 39 70 40 4 0 7 -2 7 -6z m-110 -46 c-26 -11 -174 -48 -191 -48 -5 0 -4 6
3 14 7 8 15 10 18 6 3 -4 41 3 85 15 86 24 126 30 85 13z m-8464 -13 c10 -8
14 -15 8 -15 -5 0 -19 7 -30 15 -10 8 -14 15 -8 15 5 0 19 -7 30 -15z m820 0
c-11 -8 -25 -15 -30 -15 -6 1 0 7 14 15 32 19 40 18 16 0z m-736 -37 c10 -6 7
-7 -10 -2 -14 3 -32 11 -40 16 -10 6 -7 7 10 2 14 -3 32 -11 40 -16z m680 12
c-8 -5 -19 -10 -25 -10 -5 0 -3 5 5 10 8 5 20 10 25 10 6 0 3 -5 -5 -10z
m7318 -7 c-10 -2 -26 -2 -35 0 -10 3 -2 5 17 5 19 0 27 -2 18 -5z m-7403 -23
c-27 -10 -59 -19 -70 -19 -11 0 5 8 35 19 72 24 100 24 35 0z m7522 13 c-20
-2 -52 -2 -70 0 -17 2 0 4 38 4 39 0 53 -2 32 -4z m-8052 -13 c13 -5 14 -9 5
-9 -8 0 -24 4 -35 9 -13 5 -14 9 -5 9 8 0 24 -4 35 -9z m52 -16 c-3 -3 -12 -4
-19 -1 -8 3 -5 6 6 6 11 1 17 -2 13 -5z m56 -11 c-7 -2 -21 -2 -30 0 -10 3 -4
5 12 5 17 0 24 -2 18 -5z m310 0 c-7 -2 -21 -2 -30 0 -10 3 -4 5 12 5 17 0 24
-2 18 -5z m-115 -10 c-32 -2 -86 -2 -120 0 -35 2 -9 3 57 3 66 0 94 -1 63 -3z"/>
<path d="M4740 6071 c0 -31 4 -41 20 -46 33 -10 81 5 89 28 15 39 -4 57 -59
57 l-50 0 0 -39z"/>
<path d="M4500 4286 c0 -49 11 -64 30 -42 17 22 9 80 -12 84 -15 3 -18 -4 -18
-42z"/>
<path d="M4733 4317 c-9 -15 -5 -69 7 -81 17 -17 41 15 38 52 -3 36 -30 53
-45 29z"/>
<path d="M5107 4324 c-8 -9 -9 -78 -1 -86 3 -3 14 -3 25 -1 17 5 20 13 17 47
-3 39 -23 58 -41 40z"/>
<path d="M4190 4315 c0 -17 2 -18 24 -9 18 7 12 24 -10 24 -8 0 -14 -7 -14
-15z"/>
<path d="M5570 4316 c0 -9 7 -12 20 -9 11 3 20 9 20 14 0 5 -9 9 -20 9 -11 0
-20 -6 -20 -14z"/>
<path d="M5730 4311 c-16 -30 -9 -79 12 -84 25 -7 40 16 36 60 -3 43 -30 57
-48 24z"/>
<path d="M4508 3853 c6 -2 18 -2 25 0 6 3 1 5 -13 5 -14 0 -19 -2 -12 -5z"/>
<path d="M4578 3843 c7 -3 16 -2 19 1 4 3 -2 6 -13 5 -11 0 -14 -3 -6 -6z"/>
<path d="M4768 3843 c6 -2 18 -2 25 0 6 3 1 5 -13 5 -14 0 -19 -2 -12 -5z"/>
<path d="M7636 2847 c3 -10 9 -15 12 -12 3 3 0 11 -7 18 -10 9 -11 8 -5 -6z"/>
</g>
</svg>
